<?xml version="1.0" encoding="utf-8"?>
<!-- Generator: Adobe Illustrator 27.2.0, SVG Export Plug-In . SVG Version: 6.00 Build 0)  -->
<svg version="1.1" id="Layer_1" xmlns="http://www.w3.org/2000/svg" xmlns:xlink="http://www.w3.org/1999/xlink" x="0px" y="0px"
	 viewBox="0 0 100 100" style="enable-background:new 0 0 100 100;" xml:space="preserve">
<style type="text/css">
	.st0{fill:url(#SVGID_1_);}
	.st1{fill:url(#SVGID_00000074405707713560707150000017456990675461164452_);}
	.st2{opacity:0.5;fill:url(#SVGID_00000135692058093662101700000002849567890311477121_);enable-background:new    ;}
	.st3{fill:url(#SVGID_00000013894835463752831670000006158610932836577695_);}
	.st4{opacity:0.5;fill:url(#SVGID_00000043414806524291261780000007596321813812397449_);enable-background:new    ;}
	.st5{opacity:0.3;fill:#FFFFFF;enable-background:new    ;}
	.st6{fill:url(#SVGID_00000080928124152265150200000015099093145078079642_);}
	.st7{fill:url(#SVGID_00000025408214495706804940000006665267262915320243_);}
	.st8{opacity:0.3;fill:url(#SVGID_00000171679830819720600290000000432069266375311758_);enable-background:new    ;}
	.st9{opacity:0.3;fill:url(#SVGID_00000109718615342636767710000011730138322809511607_);enable-background:new    ;}
	.st10{opacity:0.3;fill:url(#SVGID_00000109024375462772938060000017607913900838335888_);enable-background:new    ;}
	.st11{opacity:0.5;fill:url(#SVGID_00000091733312023460652030000014038771229009084572_);enable-background:new    ;}
	.st12{opacity:0.5;fill:url(#SVGID_00000125581092202411667200000004889743344615564732_);enable-background:new    ;}
	.st13{opacity:0.5;fill:url(#SVGID_00000080206248126262624230000017749478517102274999_);enable-background:new    ;}
</style>
<g>
	
		<linearGradient id="SVGID_1_" gradientUnits="userSpaceOnUse" x1="-1668.7024" y1="-587.9871" x2="-1668.7024" y2="-591.0327" gradientTransform="matrix(1 0 0 -1 1725.17 -492.07)">
		<stop  offset="0" style="stop-color:#25B80F"/>
		<stop  offset="0.57" style="stop-color:#107816"/>
		<stop  offset="1" style="stop-color:#00451C"/>
	</linearGradient>
	<path class="st0" d="M65.7,95.9c0.3,0,0.6,0,0.8,0c-5.2,1.9-10.7,2.9-16.6,2.9c-1.2,0-2.4,0-3.6-0.1c0.2-0.1,0.4-0.1,0.7-0.2
		C52.9,96.7,58.8,95.9,65.7,95.9z"/>
	
		<linearGradient id="SVGID_00000001621980782816858920000014050305148270942595_" gradientUnits="userSpaceOnUse" x1="-1671.7949" y1="-567.2656" x2="-1671.7949" y2="-584.7534" gradientTransform="matrix(1 0 0 -1 1725.17 -492.07)">
		<stop  offset="0" style="stop-color:#25B80F"/>
		<stop  offset="0.57" style="stop-color:#107816"/>
		<stop  offset="1" style="stop-color:#00451C"/>
	</linearGradient>
	<path style="fill:url(#SVGID_00000001621980782816858920000014050305148270942595_);" d="M90.1,77.7c-0.3,0.4-0.6,0.8-0.8,1.2
		c-1.1,1.5-2.3,3-3.6,4.3c-0.3,0.4-0.7,0.8-1.1,1.1l-0.9-0.2c-5-0.8-10.9-1.8-17.8-2.2c-1.5-0.1-3.1-0.1-4.7-0.1
		c-2,0-4.1,0.1-6.2,0.2c-14,0.9-24,5.4-29.9,9.1l-0.6,0.3c-0.6-0.4-1.3-0.8-1.9-1.2c-1.7-1.2-3.4-2.4-5-3.8
		c-0.3-0.3-0.6-0.6-0.9-0.8c1.9-1,9.2-4.4,19.2-7.1c7.5-2,14.9-3.2,21.8-3.5c1.5-0.1,3-0.1,4.5-0.1c3,0,5.8,0.1,8.8,0.4
		c1.5,0.1,3,0.3,4.5,0.5c2.6,0.3,5.1,0.7,7.2,1c2.7,0.4,5.1,0.8,7.4,1L90.1,77.7z"/>
	
		<linearGradient id="SVGID_00000008868510623292411340000007721976257892791432_" gradientUnits="userSpaceOnUse" x1="-1659.3304" y1="-571.8965" x2="-1635.0925" y2="-571.8965" gradientTransform="matrix(1 0 0 -1 1725.17 -492.07)">
		<stop  offset="0" style="stop-color:#25B80F"/>
		<stop  offset="0.57" style="stop-color:#107816"/>
		<stop  offset="1" style="stop-color:#00451C"/>
	</linearGradient>
	<path style="opacity:0.5;fill:url(#SVGID_00000008868510623292411340000007721976257892791432_);enable-background:new    ;" d="
		M90.1,77.7c-0.3,0.4-0.6,0.8-0.8,1.2c-1.1,1.5-2.3,3-3.6,4.3c-0.3,0.4-0.7,0.8-1.1,1.1l-0.9-0.2c-5-0.8-10.9-1.8-17.8-2.2
		c1.9-2,3.6-4.3,5.1-6.8c1.5,0.1,3,0.3,4.5,0.5c2.6,0.3,5.1,0.7,7.2,1C85.4,77.2,87.8,77.6,90.1,77.7L90.1,77.7z"/>
	
		<linearGradient id="SVGID_00000158011712675164996690000003379060285225385360_" gradientUnits="userSpaceOnUse" x1="-1675.17" y1="-494.269" x2="-1675.17" y2="-565.6958" gradientTransform="matrix(1 0 0 -1 1725.17 -492.07)">
		<stop  offset="0" style="stop-color:#FFB917"/>
		<stop  offset="0.86" style="stop-color:#FF7903"/>
		<stop  offset="1" style="stop-color:#FF6E00"/>
	</linearGradient>
	<path style="fill:url(#SVGID_00000158011712675164996690000003379060285225385360_);" d="M98.7,50c0,3.1-0.3,6.2-0.9,9.2
		c-0.2,1-0.4,1.9-0.6,2.9H97c-4.3-0.2-9.1-0.9-14.6-1.8c-1.6-0.3-3.2-0.5-4.9-0.8c-6.5-1-13.7-1.9-22-2.1c-0.8,0-1.7,0-2.5,0
		c-21.4,0-37.8,6.4-47.8,11.8c-0.6-1.5-1.2-3-1.7-4.6C2,60,1.2,55.1,1.2,50C1.3,23.1,23.1,1.3,50,1.3c1.7,0,3.3,0.1,5,0.3
		C79.6,4,98.8,24.8,98.7,50L98.7,50z"/>
	
		<linearGradient id="SVGID_00000106111888719249195390000017539662687446236074_" gradientUnits="userSpaceOnUse" x1="-1670.1937" y1="-523.8287" x2="-1626.4272" y2="-523.8287" gradientTransform="matrix(1 0 0 -1 1725.17 -492.07)">
		<stop  offset="0" style="stop-color:#FFB917"/>
		<stop  offset="0.86" style="stop-color:#FF7903"/>
		<stop  offset="1" style="stop-color:#FF6E00"/>
	</linearGradient>
	<path style="opacity:0.5;fill:url(#SVGID_00000106111888719249195390000017539662687446236074_);enable-background:new    ;" d="
		M98.7,50c0,3.1-0.3,6.2-0.9,9.2c-0.2,1-0.4,1.9-0.6,2.9H97c-4.3-0.2-9.1-0.9-14.6-1.8c-1.6-0.3-3.2-0.5-4.9-0.8
		c0.4-2,0.8-4.1,1-6.3C81.2,24,63.8,7.8,55,1.5C79.6,4,98.7,24.7,98.7,50L98.7,50z"/>
	<path class="st5" d="M98.7,50c0,3.1-0.3,6.2-0.9,9.2c-0.2,1-0.4,1.9-0.6,2.9H97c-0.8-0.1-1.6-0.1-2.4-0.2c1-3.8,1.5-7.8,1.5-11.9
		C96,24.6,75.4,4,50,4S3.9,24.6,3.9,50c0,6.3,1.3,12.4,3.6,17.9c-0.8,0.4-1.6,0.8-2.4,1.2c-0.6-1.5-1.2-3-1.7-4.6
		C2,59.9,1.3,55,1.3,50C1.3,23.1,23.1,1.3,50,1.3S98.7,23.1,98.7,50z"/>
	
		<linearGradient id="SVGID_00000133492067784584498620000015792886275386031010_" gradientUnits="userSpaceOnUse" x1="-1670.5704" y1="-541.6775" x2="-1670.5704" y2="-607.4843" gradientTransform="matrix(1 0 0 -1 1725.17 -492.07)">
		<stop  offset="0" style="stop-color:#25B80F"/>
		<stop  offset="0.57" style="stop-color:#107816"/>
		<stop  offset="1" style="stop-color:#00451C"/>
	</linearGradient>
	<path style="fill:url(#SVGID_00000133492067784584498620000015792886275386031010_);" d="M83.5,85.5c-0.4,0.4-0.8,0.7-1.2,1.1
		c-2.4,2.1-4.9,3.9-7.6,5.5c-1.7,1-3.4,1.9-5.1,2.6c-7.2-0.3-14.7,0.1-22.8,2.5c-1.2,0.3-2.3,0.7-3.3,1.1c-0.4-0.1-0.8-0.1-1.2-0.2
		c-1.7-0.3-3.5-0.7-5.1-1.1c-3.4-0.9-6.6-2.2-9.6-3.8c-0.6-0.3-1.2-0.6-1.7-0.9c5.8-3.6,15.5-8,29.3-8.9c3.4-0.2,6.6-0.3,9.7-0.1
		C71.8,83.5,78,84.6,83.5,85.5z"/>
	
		<linearGradient id="SVGID_00000167384396711545717370000003783263711060275368_" gradientUnits="userSpaceOnUse" x1="-1673.9142" y1="-541.6461" x2="-1673.9142" y2="-607.4843" gradientTransform="matrix(1 0 0 -1 1725.17 -492.07)">
		<stop  offset="0" style="stop-color:#7BC5FF"/>
		<stop  offset="0.39" style="stop-color:#4C84FF"/>
		<stop  offset="1" style="stop-color:#001AFF"/>
	</linearGradient>
	<path style="fill:url(#SVGID_00000167384396711545717370000003783263711060275368_);" d="M96.9,63.3c-0.2,0.7-0.4,1.3-0.6,1.9
		c0,0.1,0,0.1-0.1,0.2c-0.1,0.2-0.1,0.3-0.2,0.5c-0.3,0.9-0.6,1.8-1,2.6c-0.1,0.3-0.2,0.5-0.3,0.7c-0.1,0.3-0.3,0.6-0.4,0.8
		c-0.2,0.3-0.3,0.7-0.4,1c-0.1,0.2-0.2,0.3-0.3,0.5c-0.1,0.1-0.1,0.3-0.2,0.4c-0.1,0.2-0.2,0.3-0.3,0.5c-0.1,0.2-0.2,0.4-0.3,0.6
		c-0.5,0.9-1.1,1.9-1.6,2.8c-0.2,0.3-0.3,0.5-0.5,0.8c-4.1-0.3-8.9-1.3-15.2-2c-1.3-0.2-2.6-0.3-3.9-0.4c-4.1-0.3-8.7-0.5-14.1-0.3
		c-8,0.3-15.6,1.8-22.1,3.6c-11,3-18.7,6.9-19.7,7.3c0,0,0,0,0,0c0,0-0.1,0-0.1,0c-0.5-0.4-0.9-0.9-1.4-1.4
		c-0.1-0.1-0.3-0.3-0.4-0.4c-0.4-0.4-0.8-0.9-1.2-1.4c-0.2-0.2-0.3-0.4-0.5-0.6c0,0-0.1-0.1-0.1-0.1c-0.2-0.2-0.3-0.3-0.4-0.5
		c-0.2-0.3-0.4-0.5-0.6-0.8c0-0.1-0.1-0.1-0.1-0.1c-0.1-0.1-0.2-0.3-0.3-0.3c-0.1-0.2-0.3-0.3-0.3-0.5c-0.1-0.1-0.2-0.2-0.2-0.3
		c-0.2-0.3-0.3-0.5-0.5-0.8c-0.1-0.1-0.2-0.2-0.2-0.3c-0.2-0.2-0.3-0.4-0.4-0.6c-0.1-0.2-0.2-0.3-0.3-0.5c-0.2-0.3-0.4-0.7-0.6-1
		c-0.2-0.3-0.3-0.6-0.5-0.8c0,0,0-0.1,0-0.1c-0.2-0.3-0.3-0.6-0.5-0.9c0,0,0-0.1,0-0.1c-0.2-0.3-0.3-0.6-0.5-0.9c0,0,0-0.1,0-0.1
		c-0.2-0.3-0.3-0.7-0.5-1c-0.2-0.3-0.3-0.7-0.5-1c10-5.4,27.2-12.2,49.8-11.6c8.2,0.2,15.4,1.1,21.7,2.1
		C84.7,61.8,91.1,63,96.9,63.3L96.9,63.3z"/>
	
		<linearGradient id="SVGID_00000062186775989441725570000013869336520650357130_" gradientUnits="userSpaceOnUse" x1="-1683.0034" y1="-582.8225" x2="-1641.7172" y2="-582.8225" gradientTransform="matrix(1 0 0 -1 1725.17 -492.07)">
		<stop  offset="0" style="stop-color:#25B80F"/>
		<stop  offset="0.57" style="stop-color:#107816"/>
		<stop  offset="1" style="stop-color:#00451C"/>
	</linearGradient>
	<path style="opacity:0.3;fill:url(#SVGID_00000062186775989441725570000013869336520650357130_);enable-background:new    ;" d="
		M64.7,83.3c7.1,0.3,13.3,1.3,18.7,2.2c-0.4,0.4-0.8,0.7-1.2,1.1c-2.4,2.1-4.9,3.9-7.6,5.5c-1.7,1-3.4,1.9-5.1,2.6
		c-7.2-0.3-14.7,0.1-22.8,2.5c-1.2,0.3-2.3,0.7-3.3,1.1c-0.4-0.1-0.8-0.1-1.2-0.2C48.5,95.5,57.4,90.9,64.7,83.3L64.7,83.3z"/>
	
		<linearGradient id="SVGID_00000121999083139956349420000008432099774901724316_" gradientUnits="userSpaceOnUse" x1="-1653.428" y1="-560.6096" x2="-1628.248" y2="-560.6096" gradientTransform="matrix(1 0 0 -1 1725.17 -492.07)">
		<stop  offset="0" style="stop-color:#7BC5FF"/>
		<stop  offset="0.39" style="stop-color:#4C84FF"/>
		<stop  offset="1" style="stop-color:#001AFF"/>
	</linearGradient>
	<path style="opacity:0.3;fill:url(#SVGID_00000121999083139956349420000008432099774901724316_);enable-background:new    ;" d="
		M96.9,63.3c-0.2,0.7-0.4,1.3-0.6,1.9c0,0.1,0,0.1-0.1,0.2c-0.1,0.2-0.1,0.3-0.2,0.5c-0.3,0.9-0.6,1.8-1,2.6
		c-0.1,0.3-0.2,0.5-0.3,0.7c-0.1,0.3-0.3,0.6-0.4,0.8c-0.2,0.3-0.3,0.7-0.4,1c-0.1,0.2-0.2,0.3-0.3,0.5c-0.1,0.1-0.1,0.3-0.2,0.4
		c-0.1,0.2-0.2,0.3-0.3,0.5c-0.1,0.2-0.2,0.4-0.3,0.6c-0.5,0.9-1.1,1.9-1.6,2.8c-0.2,0.3-0.3,0.5-0.5,0.8c-4.1-0.3-8.9-1.3-15.2-2
		c-1.3-0.2-2.6-0.3-3.9-0.4c2.4-3.9,4.2-8.4,5.5-13.4C84.7,61.7,91.1,63,96.9,63.3L96.9,63.3z"/>
	<path class="st5" d="M96.9,63.3c-0.2,0.6-0.4,1.3-0.6,1.9c0,0.1,0,0.1-0.1,0.2c-9.1-0.3-24.6-4.6-45.7-4.6S13.4,68.4,6.7,72.3
		c0,0,0,0,0-0.1c-0.2-0.3-0.3-0.7-0.5-1c-0.2-0.3-0.3-0.7-0.5-1c10-5.4,27.2-12.2,49.8-11.6C73.4,59.1,86.3,62.9,96.9,63.3
		L96.9,63.3z"/>
	<path class="st5" d="M83.5,85.5c-0.4,0.4-0.8,0.7-1.2,1.1c-5.6-0.6-15.2-1.9-26.5-1.7c-12.7,0.3-24.1,5.9-28.3,8.4
		c-0.6-0.3-1.2-0.6-1.7-0.9c5.8-3.6,15.5-8,29.3-8.9C66.4,82.6,75.7,84.1,83.5,85.5z"/>
	
		<linearGradient id="SVGID_00000007402708167921056170000013744758292977052834_" gradientUnits="userSpaceOnUse" x1="-1714.3057" y1="-568.5532" x2="-1631.6075" y2="-568.5532" gradientTransform="matrix(1 0 0 -1 1725.17 -492.07)">
		<stop  offset="0" style="stop-color:#7BC5FF"/>
		<stop  offset="0.39" style="stop-color:#4C84FF"/>
		<stop  offset="1" style="stop-color:#001AFF"/>
	</linearGradient>
	<path style="opacity:0.3;fill:url(#SVGID_00000007402708167921056170000013744758292977052834_);enable-background:new    ;" d="
		M93.6,71.9c-0.1,0.2-0.2,0.3-0.3,0.5c-0.1,0.2-0.2,0.4-0.3,0.6c-0.5,0.9-1,1.9-1.6,2.8c-0.2,0.3-0.3,0.5-0.5,0.8
		c-4.1-0.3-8.9-1.3-15.2-2c-5-0.6-10.9-1-18-0.7c-8,0.3-15.6,1.8-22.1,3.6c-11,3-18.7,6.9-19.7,7.3c0,0,0,0,0,0c0,0-0.1,0-0.1,0
		c-0.5-0.4-0.9-0.9-1.4-1.4c-0.1-0.1-0.3-0.3-0.4-0.4c-0.4-0.4-0.8-0.9-1.2-1.4c-0.2-0.2-0.3-0.4-0.5-0.6c0,0-0.1-0.1-0.1-0.1
		c-0.2-0.2-0.3-0.3-0.4-0.5c-0.2-0.3-0.4-0.5-0.6-0.8c0,0-0.1-0.1-0.1-0.2c-0.1-0.1-0.2-0.3-0.3-0.3c6.4-3.6,19.2-9.5,36.1-10.6
		C66.5,67.2,84.1,71.5,93.6,71.9L93.6,71.9z"/>
	
		<linearGradient id="SVGID_00000150076122724445565780000013078173038242645160_" gradientUnits="userSpaceOnUse" x1="-1688.1211" y1="-586.7933" x2="-1650.4768" y2="-586.7933" gradientTransform="matrix(1 0 0 -1 1725.17 -492.07)">
		<stop  offset="0" style="stop-color:#25B80F"/>
		<stop  offset="0.57" style="stop-color:#107816"/>
		<stop  offset="1" style="stop-color:#00451C"/>
	</linearGradient>
	<path style="opacity:0.5;fill:url(#SVGID_00000150076122724445565780000013078173038242645160_);enable-background:new    ;" d="
		M74.7,92.1c-1.7,1-3.4,1.9-5.1,2.6c-7.2-0.3-14.7,0.1-22.8,2.5c-1.2,0.3-2.3,0.7-3.3,1.1C41.2,98,39.1,97.5,37,97
		c4-2.7,12.1-6.2,26.5-5.8C67.8,91.3,71.5,91.6,74.7,92.1L74.7,92.1z"/>
	<path class="st5" d="M90.1,77.7c-0.3,0.4-0.6,0.8-0.8,1.2C84,78.2,74.7,76,60.9,75.7c-16.5-0.4-36.7,7.9-43.2,10.8
		c-0.3-0.3-0.6-0.6-0.9-0.8c1.9-1,9.2-4.4,19.2-7.1c7.5-2,14.9-3.2,21.8-3.5c1.5-0.1,3-0.1,4.5-0.1c4.4,0,8.7,0.3,13.3,0.8
		c2.6,0.3,5.1,0.7,7.2,1C85.4,77.2,87.8,77.6,90.1,77.7L90.1,77.7z"/>
	
		<linearGradient id="SVGID_00000170968665349767526290000015875252301068652731_" gradientUnits="userSpaceOnUse" x1="-1702.532" y1="-577.8804" x2="-1639.5194" y2="-577.8804" gradientTransform="matrix(1 0 0 -1 1725.17 -492.07)">
		<stop  offset="0" style="stop-color:#25B80F"/>
		<stop  offset="0.57" style="stop-color:#107816"/>
		<stop  offset="1" style="stop-color:#00451C"/>
	</linearGradient>
	<path style="opacity:0.5;fill:url(#SVGID_00000170968665349767526290000015875252301068652731_);enable-background:new    ;" d="
		M85.7,83.3c-0.3,0.4-0.7,0.8-1.1,1.1l-0.9-0.2c-6-1-13.6-2.3-22.5-2.3c-2,0-4.1,0.1-6.2,0.2c-14,0.9-24,5.4-29.9,9.1l-0.6,0.3
		c-0.6-0.4-1.3-0.8-1.9-1.2c4.8-3.2,17.2-9.9,36.3-10.3C71.1,79.8,79.8,81.5,85.7,83.3z"/>
	
		<linearGradient id="SVGID_00000017515072952082938220000015792590288313253053_" gradientUnits="userSpaceOnUse" x1="-1721.7152" y1="-553.7676" x2="-1627.2749" y2="-553.7676" gradientTransform="matrix(1 0 0 -1 1725.17 -492.07)">
		<stop  offset="0" style="stop-color:#FFB917"/>
		<stop  offset="0.86" style="stop-color:#FF7903"/>
		<stop  offset="1" style="stop-color:#FF6E00"/>
	</linearGradient>
	<path style="opacity:0.5;fill:url(#SVGID_00000017515072952082938220000015792590288313253053_);enable-background:new    ;" d="
		M97.9,59.2c-0.2,1-0.4,1.9-0.6,2.9H97c-4.3-0.2-9.1-0.9-14.6-1.8C74.7,59,66,57.6,55.5,57.4c-0.8,0-1.7,0-2.5,0
		c-21.4,0-37.8,6.4-47.8,11.8c-0.6-1.5-1.2-3-1.7-4.6c7.9-4,23.5-10,46-10.3C75.8,53.8,90,58.3,97.9,59.2L97.9,59.2z"/>
</g>
</svg>
