<?xml version="1.0" encoding="UTF-8"?>
<svg xmlns="http://www.w3.org/2000/svg" xmlns:xlink="http://www.w3.org/1999/xlink" viewBox="0 0 114.83 33.04">
  <defs>
    <style>
      .cls-1 {
        fill: url(#linear-gradient-7);
      }

      .cls-1, .cls-2, .cls-3, .cls-4, .cls-5, .cls-6, .cls-7, .cls-8 {
        mix-blend-mode: multiply;
      }

      .cls-1, .cls-2, .cls-3, .cls-4, .cls-6 {
        opacity: .5;
      }

      .cls-9 {
        fill: url(#linear-gradient-2);
      }

      .cls-2 {
        fill: url(#linear-gradient-3);
      }

      .cls-3 {
        fill: url(#New_Gradient_Swatch-7);
      }

      .cls-10 {
        fill: url(#New_Gradient_Swatch);
      }

      .cls-4 {
        fill: url(#New_Gradient_Swatch-6);
      }

      .cls-11 {
        isolation: isolate;
      }

      .cls-12 {
        fill: #fff;
        mix-blend-mode: overlay;
      }

      .cls-12, .cls-5, .cls-7, .cls-8 {
        opacity: .3;
      }

      .cls-13 {
        fill: url(#New_Gradient_Swatch-4);
      }

      .cls-5 {
        fill: url(#New_Gradient_Swatch-5);
      }

      .cls-6 {
        fill: url(#New_Gradient_Swatch-3);
      }

      .cls-7 {
        fill: url(#linear-gradient-6);
      }

      .cls-8 {
        fill: url(#linear-gradient-5);
      }

      .cls-14 {
        fill: url(#linear-gradient);
      }

      .cls-15 {
        fill: url(#linear-gradient-4);
      }

      .cls-16 {
        fill: url(#New_Gradient_Swatch-2);
      }
    </style>
    <linearGradient id="linear-gradient" x1="-1650.38" y1="604.16" x2="-1650.38" y2="618.91" gradientTransform="translate(1725.17 -592.07)" gradientUnits="userSpaceOnUse">
      <stop offset="0" stop-color="#ffb917"/>
      <stop offset=".86" stop-color="#ff7903"/>
      <stop offset="1" stop-color="#ff6e00"/>
    </linearGradient>
    <linearGradient id="New_Gradient_Swatch" data-name="New Gradient Swatch" x1="-1706.62" y1="623.42" x2="-1706.62" y2="624.39" gradientTransform="translate(1725.17 -592.07)" gradientUnits="userSpaceOnUse">
      <stop offset="0" stop-color="#25b80f"/>
      <stop offset=".57" stop-color="#107816"/>
      <stop offset="1" stop-color="#00451c"/>
    </linearGradient>
    <linearGradient id="New_Gradient_Swatch-2" data-name="New Gradient Swatch" x1="-1707.59" y1="616.82" x2="-1707.59" y2="622.39" xlink:href="#New_Gradient_Swatch"/>
    <linearGradient id="New_Gradient_Swatch-3" data-name="New Gradient Swatch" x1="-1703.64" y1="618.31" x2="-1695.92" y2="618.31" xlink:href="#New_Gradient_Swatch"/>
    <linearGradient id="linear-gradient-2" x1="-1708.69" y1="593.57" x2="-1708.69" y2="616.32" xlink:href="#linear-gradient"/>
    <linearGradient id="linear-gradient-3" x1="-1707.1" y1="602.99" x2="-1693.16" y2="602.99" xlink:href="#linear-gradient"/>
    <linearGradient id="New_Gradient_Swatch-4" data-name="New Gradient Swatch" x1="-1707.22" y1="608.67" x2="-1707.22" y2="629.63" xlink:href="#New_Gradient_Swatch"/>
    <linearGradient id="linear-gradient-4" x1="-1708.28" y1="608.66" x2="-1708.28" y2="629.63" gradientTransform="translate(1725.17 -592.07)" gradientUnits="userSpaceOnUse">
      <stop offset="0" stop-color="#7bc5ff"/>
      <stop offset=".39" stop-color="#4c84ff"/>
      <stop offset="1" stop-color="#001aff"/>
    </linearGradient>
    <linearGradient id="New_Gradient_Swatch-5" data-name="New Gradient Swatch" x1="-1711.18" y1="621.79" x2="-1698.03" y2="621.79" xlink:href="#New_Gradient_Swatch"/>
    <linearGradient id="linear-gradient-5" x1="-1701.76" y1="614.73" x2="-1693.74" y2="614.73" xlink:href="#linear-gradient-4"/>
    <linearGradient id="linear-gradient-6" x1="-1721.13" y1="617.25" x2="-1694.81" y2="617.25" xlink:href="#linear-gradient-4"/>
    <linearGradient id="New_Gradient_Swatch-6" data-name="New Gradient Swatch" x1="-1712.81" y1="623.05" x2="-1700.83" y2="623.05" xlink:href="#New_Gradient_Swatch"/>
    <linearGradient id="New_Gradient_Swatch-7" data-name="New Gradient Swatch" x1="-1717.4" y1="620.21" x2="-1697.34" y2="620.21" xlink:href="#New_Gradient_Swatch"/>
    <linearGradient id="linear-gradient-7" x1="-1723.51" y1="612.51" x2="-1693.44" y2="612.51" xlink:href="#linear-gradient"/>
  </defs>
  <g class="cls-11">
    <g id="OBJECTS">
      <g>
        <g>
          <path class="cls-14" d="m38.38,23.45h-2.36c-.19,0-.33-.04-.42-.13-.09-.09-.13-.23-.13-.42v-9.88c0-.19.04-.33.13-.42.09-.09.23-.13.42-.13h2.36c.19,0,.33.04.42.13.09.09.13.23.13.42v3.31h2.55v-3.31c0-.19.04-.33.13-.42.09-.09.23-.13.42-.13h2.36c.19,0,.33.04.42.13.09.09.13.23.13.42v9.88c0,.19-.04.33-.13.42s-.23.13-.42.13h-2.36c-.19,0-.33-.04-.42-.13-.09-.09-.13-.23-.13-.42v-3.39h-2.55v3.39c0,.19-.04.33-.13.42s-.23.13-.42.13Z"/>
          <path class="cls-14" d="m57.11,20.56c0,.47-.07.89-.21,1.27-.14.38-.38.71-.73.98s-.83.48-1.45.63-1.4.23-2.34.23-1.73-.08-2.35-.23-1.11-.36-1.46-.63c-.35-.27-.6-.6-.73-.98-.14-.38-.21-.81-.21-1.27v-5.2c0-.47.07-.89.21-1.27.14-.38.38-.71.73-.98.35-.27.84-.49,1.46-.64s1.4-.23,2.35-.23,1.73.08,2.34.23,1.1.37,1.45.64.59.6.73.98c.14.38.21.81.21,1.27v5.2Zm-6.01-.55c0,.2.08.37.23.51s.5.21,1.05.21.9-.07,1.05-.21.23-.31.23-.51v-4.1c0-.19-.08-.36-.23-.5s-.5-.21-1.05-.21-.9.07-1.05.21-.23.3-.23.5v4.1Z"/>
          <path class="cls-14" d="m62.71,23.45h-2.35c-.19,0-.33-.04-.42-.13-.09-.09-.13-.23-.13-.42v-9.88c0-.19.04-.33.13-.42.09-.09.23-.13.42-.13h5.08c1.14,0,1.92.24,2.36.71.43.47.65,1.09.65,1.84v.7c0,.43-.06.79-.19,1.09-.13.3-.35.52-.66.65.55.06.99.28,1.33.67.34.39.51.9.51,1.54v3.23c0,.19-.04.33-.13.42s-.23.13-.42.13h-2.36c-.19,0-.33-.04-.42-.13-.09-.09-.13-.23-.13-.42v-2.33c0-.22-.04-.39-.13-.5-.09-.11-.24-.16-.45-.16h-2.13v2.99c0,.19-.04.33-.13.42s-.23.13-.42.13Zm.55-8.24v1.95h1.14c.26,0,.44-.07.53-.21s.14-.31.14-.51v-.52c0-.2-.04-.37-.14-.51s-.27-.21-.53-.21h-1.14Z"/>
          <path class="cls-14" d="m72.21,23.45c-.19,0-.33-.04-.42-.13-.09-.09-.13-.23-.13-.42v-1.81c0-.19.04-.33.13-.42.09-.09.23-.13.42-.13h1.51v-5.12h-1.51c-.19,0-.33-.04-.42-.13-.09-.09-.13-.23-.13-.42v-1.85c0-.19.04-.33.13-.42.09-.09.23-.13.42-.13h6.5c.19,0,.33.04.42.13.09.09.13.23.13.42v1.85c0,.19-.04.33-.13.42-.09.09-.23.13-.42.13h-1.48v5.12h1.48c.19,0,.33.04.42.13.09.09.13.23.13.42v1.81c0,.19-.04.33-.13.42s-.23.13-.42.13h-6.5Z"/>
          <path class="cls-14" d="m89.66,23.45h-7.57c-.19,0-.33-.04-.42-.13s-.13-.23-.13-.42v-2.04c0-.19.03-.36.09-.51.06-.15.16-.29.29-.43l3.71-4.5h-3.26c-.19,0-.33-.04-.42-.13-.09-.09-.13-.23-.13-.42v-1.85c0-.19.04-.33.13-.42.09-.09.23-.13.42-.13h7.02c.19,0,.33.04.42.13.09.09.13.23.13.42v2.27c0,.2-.03.38-.09.53-.06.15-.16.29-.29.43l-3.54,4.29h3.65c.19,0,.33.04.42.13.09.09.13.23.13.42v1.81c0,.19-.04.33-.13.42s-.23.13-.42.13Z"/>
          <path class="cls-14" d="m102.03,20.56c0,.47-.07.89-.21,1.27-.14.38-.38.71-.73.98s-.83.48-1.45.63-1.4.23-2.34.23-1.73-.08-2.35-.23-1.11-.36-1.46-.63c-.35-.27-.6-.6-.73-.98-.14-.38-.21-.81-.21-1.27v-5.2c0-.47.07-.89.21-1.27.14-.38.38-.71.73-.98.35-.27.84-.49,1.46-.64s1.4-.23,2.35-.23,1.73.08,2.34.23,1.1.37,1.45.64.59.6.73.98c.14.38.21.81.21,1.27v5.2Zm-6.01-.55c0,.2.08.37.23.51s.5.21,1.05.21.9-.07,1.05-.21.23-.31.23-.51v-4.1c0-.19-.08-.36-.23-.5s-.5-.21-1.05-.21-.9.07-1.05.21-.23.3-.23.5v4.1Z"/>
          <path class="cls-14" d="m107.57,23.45h-2.29c-.19,0-.33-.04-.42-.13-.09-.09-.13-.23-.13-.42v-9.88c0-.19.04-.33.13-.42.09-.09.23-.13.42-.13h1.59c.19,0,.36.03.5.09.14.06.27.17.4.32l2.96,3.39v-3.25c0-.19.04-.33.13-.42.09-.09.23-.13.42-.13h2.29c.19,0,.33.04.42.13.09.09.13.23.13.42v9.88c0,.19-.04.33-.13.42s-.23.13-.42.13h-2.29c-.19,0-.33-.04-.42-.13-.09-.09-.13-.23-.13-.42v-1.88l-2.61-3.16v5.03c0,.19-.04.33-.13.42-.09.09-.23.13-.42.13Z"/>
        </g>
        <g>
          <path class="cls-10" d="m21.49,31.33c.09,0,.18,0,.27,0-1.65.6-3.42.92-5.28.92-.39,0-.77-.01-1.15-.04.07-.02.14-.04.21-.06,1.87-.56,3.76-.82,5.95-.82Z"/>
          <path class="cls-16" d="m29.25,25.56c-.09.12-.18.25-.27.37-.36.48-.74.95-1.15,1.38-.11.12-.23.24-.35.36l-.29-.05c-1.58-.26-3.47-.58-5.68-.69-.49-.02-.99-.04-1.51-.04-.65,0-1.31.02-1.96.06-4.46.29-7.63,1.73-9.51,2.89l-.18.11c-.2-.12-.4-.25-.6-.39-.55-.37-1.08-.78-1.58-1.22-.1-.09-.2-.18-.3-.27.62-.31,2.92-1.39,6.1-2.26,2.39-.65,4.73-1.03,6.94-1.12.48-.02.96-.03,1.42-.03.94,0,1.86.04,2.8.12.47.04.95.09,1.44.15.83.1,1.61.22,2.29.32.87.14,1.64.25,2.35.31Z"/>
          <path class="cls-6" d="m29.25,25.56c-.09.12-.18.25-.27.37-.36.48-.74.95-1.15,1.38-.11.12-.23.24-.35.36l-.29-.05c-1.58-.26-3.47-.58-5.68-.69.59-.65,1.14-1.36,1.64-2.15.47.04.95.09,1.44.15.83.1,1.61.22,2.29.32.87.14,1.64.25,2.35.31Z"/>
          <path class="cls-9" d="m32.01,16.73c0,1-.09,1.98-.28,2.92-.06.31-.13.61-.2.91h-.09c-1.38-.06-2.89-.3-4.64-.58-.51-.08-1.03-.16-1.56-.25-2.06-.31-4.35-.61-7.01-.67-.27,0-.54,0-.81,0-6.81,0-12.04,2.04-15.23,3.76-.2-.47-.38-.96-.54-1.46-.46-1.46-.7-3.02-.7-4.63C.96,8.15,7.91,1.2,16.49,1.2c.54,0,1.06.03,1.59.08,7.83.79,13.94,7.41,13.94,15.45Z"/>
          <path class="cls-2" d="m32.01,16.73c0,1-.09,1.98-.28,2.92-.06.31-.13.61-.2.91h-.09c-1.38-.06-2.89-.3-4.64-.58-.51-.08-1.03-.16-1.56-.25.14-.64.24-1.3.31-2,.88-9.28-4.66-14.45-7.48-16.46,7.83.79,13.94,7.41,13.94,15.45Z"/>
          <path class="cls-12" d="m32.01,16.73c0,1-.09,1.98-.28,2.92-.06.31-.13.61-.2.91h-.09c-.25-.02-.51-.03-.78-.05.32-1.21.49-2.47.49-3.78,0-8.1-6.57-14.67-14.67-14.67S1.81,8.62,1.81,16.73c0,2.02.41,3.94,1.15,5.69-.26.13-.52.26-.76.39-.2-.47-.38-.96-.54-1.46-.46-1.46-.7-3.02-.7-4.63C.96,8.15,7.91,1.2,16.49,1.2s15.52,6.95,15.52,15.53Z"/>
          <path class="cls-13" d="m27.14,28.02c-.12.12-.25.23-.38.34-.75.66-1.56,1.25-2.42,1.76-.53.31-1.07.59-1.64.83-2.29-.09-4.68.04-7.27.81-.37.11-.72.23-1.05.34-.13-.02-.26-.04-.39-.06-.55-.09-1.1-.21-1.63-.35-1.07-.29-2.09-.7-3.05-1.2-.18-.1-.37-.2-.55-.3,1.84-1.14,4.95-2.55,9.33-2.83,1.09-.07,2.11-.08,3.08-.04,2.27.09,4.23.41,5.97.7Z"/>
          <path class="cls-15" d="m31.43,20.95c-.06.21-.12.41-.18.61,0,.02-.01.04-.02.05-.02.06-.04.11-.06.16-.1.28-.2.56-.31.83-.03.08-.06.16-.1.23-.04.09-.08.18-.12.26-.05.1-.09.21-.14.31-.03.05-.05.11-.08.16-.02.04-.04.08-.06.12-.02.05-.05.11-.08.16-.03.06-.06.12-.1.18-.16.3-.34.6-.52.89-.05.09-.11.17-.16.25-1.3-.08-2.85-.4-4.85-.65-.4-.05-.82-.09-1.25-.13-1.3-.11-2.78-.17-4.48-.1-2.55.1-4.97.57-7.03,1.14-3.51.96-5.97,2.19-6.27,2.34,0,0,0,0-.01,0-.01,0-.02.01-.02.01-.15-.14-.29-.29-.43-.44-.04-.04-.08-.08-.12-.12-.13-.14-.26-.28-.38-.43-.05-.06-.11-.12-.16-.19,0-.01-.02-.02-.03-.03-.05-.06-.09-.11-.14-.17-.06-.08-.13-.16-.19-.24-.01-.02-.02-.03-.03-.04-.03-.04-.06-.08-.09-.11-.04-.05-.08-.1-.11-.15-.03-.03-.05-.07-.07-.1-.06-.08-.11-.16-.17-.24-.02-.03-.05-.07-.07-.1-.05-.07-.09-.13-.14-.2-.04-.05-.07-.11-.11-.17-.07-.11-.14-.22-.2-.32-.05-.09-.11-.18-.16-.27,0,0,0-.02-.01-.02-.05-.09-.1-.18-.15-.28,0,0,0-.02-.01-.03-.05-.1-.11-.19-.16-.29,0,0,0-.02-.01-.02-.05-.1-.11-.21-.16-.32-.05-.11-.1-.22-.15-.32,3.19-1.72,8.67-3.88,15.87-3.71,2.61.06,4.89.35,6.92.66,2.4.36,4.45.76,6.28.83Z"/>
          <path class="cls-5" d="m21.17,27.32c2.27.09,4.23.41,5.97.7-.12.12-.25.23-.38.34-.75.66-1.56,1.25-2.42,1.76-.53.31-1.07.59-1.64.83-2.29-.09-4.68.04-7.27.81-.37.11-.72.23-1.05.34-.13-.02-.26-.04-.39-.06,2.03-.83,4.84-2.3,7.18-4.73Z"/>
          <path class="cls-8" d="m31.43,20.95c-.06.21-.12.41-.18.61,0,.02-.01.04-.02.05-.02.06-.04.11-.06.16-.1.28-.2.56-.31.83-.03.08-.06.16-.1.23-.04.09-.08.18-.12.26-.05.1-.09.21-.14.31-.03.05-.05.11-.08.16-.02.04-.04.08-.06.12-.02.05-.05.11-.08.16-.03.06-.06.12-.1.18-.16.3-.34.6-.52.89-.05.09-.11.17-.16.25-1.3-.08-2.85-.4-4.85-.65-.4-.05-.82-.09-1.25-.13.75-1.25,1.35-2.67,1.74-4.28,2.4.36,4.45.76,6.28.83Z"/>
          <path class="cls-12" d="m31.43,20.95c-.06.2-.12.41-.19.61,0,.02-.01.04-.02.05-2.9-.08-7.82-1.46-14.57-1.46s-11.83,2.45-13.97,3.69c0,0,0-.01-.01-.02-.05-.1-.11-.21-.16-.32-.05-.11-.1-.22-.15-.32,3.19-1.72,8.67-3.88,15.87-3.71,5.7.14,9.83,1.35,13.2,1.49Z"/>
          <path class="cls-12" d="m27.14,28.02c-.12.12-.25.23-.38.34-1.78-.19-4.83-.62-8.45-.54-4.04.1-7.68,1.88-9,2.67-.18-.1-.37-.2-.55-.3,1.84-1.14,4.95-2.55,9.33-2.83,3.63-.24,6.57.24,9.05.66Z"/>
          <path class="cls-7" d="m30.36,23.7c-.02.05-.05.1-.08.16-.03.06-.06.12-.1.18-.16.3-.33.6-.52.89-.05.08-.11.17-.16.25-1.3-.08-2.85-.4-4.85-.65-1.59-.19-3.47-.33-5.73-.23-2.55.1-4.97.57-7.03,1.14-3.51.96-5.97,2.19-6.27,2.34,0,0,0,0-.01,0-.01,0-.02,0-.02,0-.15-.14-.29-.29-.43-.44-.04-.04-.08-.08-.12-.12-.13-.14-.26-.28-.38-.43-.05-.06-.11-.12-.16-.19,0-.01-.02-.02-.03-.03-.05-.06-.09-.11-.14-.17-.06-.08-.13-.16-.19-.24-.01-.01-.02-.03-.03-.05-.03-.04-.06-.08-.09-.11,2.04-1.15,6.11-3.01,11.49-3.38,6.22-.42,11.85.95,14.83,1.06Z"/>
          <path class="cls-4" d="m24.34,30.12c-.53.31-1.07.59-1.64.83-2.29-.09-4.68.04-7.27.81-.37.11-.72.23-1.05.34-.69-.09-1.36-.23-2.02-.41,1.28-.87,3.84-1.97,8.44-1.84,1.35.04,2.53.13,3.55.27Z"/>
          <path class="cls-12" d="m29.25,25.56c-.09.12-.18.25-.27.37-1.68-.23-4.62-.92-9.02-1.03-5.26-.13-11.69,2.52-13.77,3.45-.1-.09-.2-.18-.29-.27.62-.31,2.92-1.39,6.1-2.26,2.39-.65,4.73-1.03,6.94-1.12.48-.02.95-.03,1.42-.03,1.41,0,2.76.08,4.24.26.83.1,1.61.22,2.29.32.87.14,1.64.25,2.35.31Z"/>
          <path class="cls-3" d="m27.84,27.32c-.11.12-.23.24-.35.36l-.29-.05c-1.92-.32-4.32-.73-7.18-.73-.65,0-1.31.02-1.96.06-4.46.29-7.64,1.73-9.51,2.89l-.18.11c-.2-.12-.4-.25-.6-.38,1.53-1.01,5.48-3.15,11.56-3.27,3.86-.08,6.64.44,8.51,1.01Z"/>
          <path class="cls-1" d="m31.74,19.65c-.06.31-.13.61-.2.91h-.09c-1.38-.06-2.89-.3-4.64-.58-2.45-.39-5.23-.83-8.57-.91-.27,0-.54,0-.81,0-6.81,0-12.04,2.04-15.23,3.76-.2-.47-.38-.96-.54-1.46,2.51-1.26,7.48-3.18,14.65-3.29,8.39-.13,12.93,1.28,15.43,1.59Z"/>
        </g>
      </g>
    </g>
  </g>
</svg>